<?xml version="1.0" standalone="no"?><!DOCTYPE svg PUBLIC "-//W3C//DTD SVG 1.1//EN" "http://www.w3.org/Graphics/SVG/1.1/DTD/svg11.dtd"><svg t="1528768592558" class="icon" style="" viewBox="0 0 1024 1024" version="1.1" xmlns="http://www.w3.org/2000/svg" p-id="2425" xmlns:xlink="http://www.w3.org/1999/xlink" width="32" height="32"><defs><style type="text/css"></style></defs><path d="M512 1021.891765C230.851765 1021.891765 2.108235 793.148235 2.108235 512S230.851765 2.108235 512 2.108235 1021.891765 230.851765 1021.891765 512 793.148235 1021.891765 512 1021.891765z m0-963.764706C261.722353 58.127059 58.127059 261.722353 58.127059 512S261.722353 965.872941 512 965.872941 965.872941 762.277647 965.872941 512 762.277647 58.127059 512 58.127059z" fill="#d81e06" p-id="2426"></path><path d="M763.241412 561.935059L512 310.663529l-251.241412 251.27153-39.634823-39.634824L512 231.454118l290.876235 290.846117-39.634823 39.634824" fill="#d81e06" p-id="2427"></path><path d="M481.882353 271.058824h60.235294v512h-60.235294z" fill="#d81e06" p-id="2428"></path></svg>