<?xml version="1.0" standalone="no"?><!DOCTYPE svg PUBLIC "-//W3C//DTD SVG 1.1//EN" "http://www.w3.org/Graphics/SVG/1.1/DTD/svg11.dtd"><svg t="1528772185912" class="icon" style="" viewBox="0 0 1024 1024" version="1.1" xmlns="http://www.w3.org/2000/svg" p-id="4852" xmlns:xlink="http://www.w3.org/1999/xlink" width="32" height="32"><defs><style type="text/css"></style></defs><path d="M513 513.2m-476.9 0a476.9 476.9 0 1 0 953.8 0 476.9 476.9 0 1 0-953.8 0Z" fill="#00A0E9" p-id="4853"></path><path d="M439.8 785.8c-0.2-7.4 5.8-13.5 13.2-13.2 7.2-0.2 13.3 5.8 13.5 13.5l-0.1 46.8c0.1 7.5-6.1 13.7-13.5 13.5-7.4 0-13.4-5.9-13.5-13.5l0.4-47.1z m130.5-459.3c32.5 32.5 32.4 85.1-0.1 117.7-32.5 32.5-85.2 32.7-117.8 0.2-32.3-32.3-32.3-85.2 0.2-117.8s85.1-32.6 117.7-0.1z m-98.8 18.9c-22.1 22.1-22.2 57.6 0 79.8 22 22 57.5 21.9 79.6-0.2 22-22 22.2-57.7 0.2-79.6-22.2-22.2-57.9-21.9-79.8 0zM424 732.7c-12.2-12.2-23.6-24.9-34.2-38.7-3.6-4.9-7.4-9.6-10.9-14.7l-2 4.7c-4.6 10.9-7.2 22.7-7.6 35-0.5 12.2-10.9 21.9-23.1 21.5-2.6-0.3-4.8-0.6-6.9-1.5-29.5-9.8-54.7-28.7-72.5-53.3-17.7-24.5-28-54-27.9-86.3-0.4-29.5 8.6-57.1 23.4-80.2 12.8-19.5 29.8-35.7 50.2-47.7v-5.8l-0.2-0.7-0.2 0.2c0.2-68 18.5-132.2 50.4-187.4a371.33 371.33 0 0 1 137.7-137.7c7.2-4.3 15.7-4 22.5-0.1l0.2 0.2 0.1 0.1c57 33 104.4 80.4 137.3 137.5 31.7 55.1 50.2 119.5 50.1 187.4l0.1 2.1-0.2 4.3c20.3 11.6 37.5 28 50.1 47.7 14.8 22.9 23.5 50.5 23.4 80v1.8c-0.5 31.4-10.7 60.7-27.8 84.6-18.2 24.7-43.5 43.7-73.5 53.7-11.4 3.8-24.2-2.7-28.1-14.3-0.6-1.9-1-4.2-1-6.4-0.4-12.1-3-24.1-7.5-34.9l-2.1-4.8c-3.5 5.1-7.3 10.2-11 15-10.9 14.3-22.9 27.4-35.6 39.8-4.3 4.3-9.7 6.4-15.4 6.6l-141 0.1c-6.7 0.1-12.6-2.7-16.8-7.8z m1.1-65.7c7.9 10.1 16.3 19.9 24.9 28.9l122.6 0.1c8.7-9.2 16.9-18.9 24.8-29 9.4-12.3 18.4-25.4 25.9-39.1 1.1-2 2.7-4 4.5-5.6 8.9-8.4 23.2-8 31.5 1.2 11.8 12.7 21.1 27.4 27.9 43.6 2.1 5.7 4.3 11.9 5.9 18.1 10.4-6.6 19.5-15.3 26.6-25.7 11.9-16.6 19.2-36.7 19.5-58.8l-0.1-1.2c0.2-20.6-6.2-39.8-16.5-55.7-10.6-16.8-26.1-29.9-44.4-38.1-7.9-3.4-13.3-12-12.8-21.3l0.2-9.7-0.1-8v-1.1c0.2-60.3-16-117-44-165.1-26.8-46.6-64.8-86.4-110.5-115-45.3 28.7-83 68.2-110 114.7-28 48.7-44.1 105.3-44.1 165.4l-0.1 8.6-0.1 0.1 0.5 9c0.8 9.3-4 18.4-13 22.2-18.3 8.2-33.7 21.7-44.2 38.1-10.5 15.9-16.6 35.2-16.6 55.9l-0.1-0.1c0 22.7 7.1 43.2 19.6 60.2 7 9.9 16 18.7 26.5 25.6 1.8-6.3 3.7-12.5 6-18.2 6.7-16.1 16.1-30.5 27.5-43.4 1.7-1.7 3.7-3.5 6-4.4 10.5-6.5 24.2-2.3 30.3 8.3 7.9 13.8 16.6 27.1 25.9 39.5z m131.3 118.7c-0.1-7.3 5.8-13.2 13.2-13.2 7.5-0.1 13.5 5.8 13.3 13.3v47.1c-0.1 7.3-6.1 13.2-13.2 13.2-7.4 0.2-13.7-6.1-13.3-13.3v-47.1z m-58.5-0.1c0-7.2 5.9-13.1 13.2-13.2 7.6 0 13.6 5.9 13.5 13.5l0.1 106.9c0 7.4-5.9 13.3-13.2 13.2-7.7 0.1-13.7-5.8-13.5-13.5l-0.1-106.9z" fill="#FFFFFF" p-id="4854"></path></svg>